<svg xmlns="http://www.w3.org/2000/svg" xmlns:xlink="http://www.w3.org/1999/xlink"><symbol id="icon-Nav" viewBox="0 0 46 32"><title>Nav</title><path stroke-linejoin="miter" stroke-linecap="round" stroke-miterlimit="4" stroke-width="3.4286" d="M8.671 5.074h35.329"/><path stroke-linejoin="miter" stroke-linecap="round" stroke-miterlimit="4" stroke-width="3.4286" d="M8.671 24.468h35.329"/><path stroke-linejoin="miter" stroke-linecap="round" stroke-miterlimit="4" stroke-width="3.4286" d="M19.603 14.771h24.398"/></symbol><symbol id="icon-x" viewBox="0 0 32 32"><title>x</title><path fill="none" stroke="#fcfcfc" style="stroke: var(--color1, #fcfcfc)" stroke-linejoin="round" stroke-linecap="round" stroke-miterlimit="4" stroke-width="2.5" d="M24 8l-16 16"/><path fill="none" stroke="#fcfcfc" style="stroke: var(--color1, #fcfcfc)" stroke-linejoin="round" stroke-linecap="round" stroke-miterlimit="4" stroke-width="2.5" d="M8 8l16 16"/></symbol><symbol id="icon-d-mpr-toggle-2-1" viewBox="0 0 32 32"><title>d-mpr-toggle-2-1</title><path fill="#fcfcfc" style="fill: var(--color1, #fcfcfc)" d="M16 22.003l-10-10 1.4-1.4 8.6 8.6 8.6-8.6 1.4 1.4-10 10z"/><path fill="#fcfcfc" style="fill: var(--color1, #fcfcfc)" d="M16 22.003l-1.697 1.697 1.697 1.697 1.697-1.697-1.697-1.697zM6 12.003l-1.697-1.697-1.697 1.697 1.697 1.697 1.697-1.697zM7.4 10.603l1.697-1.697-1.697-1.697-1.697 1.697 1.697 1.697zM16 19.203l-1.697 1.697 1.697 1.697 1.697-1.697-1.697-1.697zM24.6 10.603l1.697-1.697-1.697-1.697-1.697 1.697 1.697 1.697zM26 12.003l1.697 1.697 1.697-1.697-1.697-1.697-1.697 1.697zM17.697 20.306l-10-10-3.394 3.394 10 10 3.394-3.394zM7.697 13.7l1.4-1.4-3.394-3.394-1.4 1.4 3.394 3.394zM5.703 12.3l8.6 8.6 3.394-3.394-8.6-8.6-3.394 3.394zM17.697 20.9l8.6-8.6-3.394-3.394-8.6 8.6 3.394 3.394zM22.903 12.3l1.4 1.4 3.394-3.394-1.4-1.4-3.394 3.394zM24.303 10.306l-10 10 3.394 3.394 10-10-3.394-3.394z"/></symbol><symbol id="icon--RadioButton-1" viewBox="0 0 32 32"><title>-RadioButton-1</title><path fill="none" stroke="#fcfcfc" style="stroke: var(--color1, #fcfcfc)" stroke-linejoin="miter" stroke-linecap="butt" stroke-miterlimit="4" stroke-width="2.6667" d="M16 4c6.627 0 12 5.373 12 12s-5.373 12-12 12c-6.627 0-12-5.373-12-12s5.373-12 12-12z"/></symbol><symbol id="icon--RadioButton" viewBox="0 0 32 32"><title>-RadioButton</title><path fill="none" stroke="#fcfcfc" style="stroke: var(--color1, #fcfcfc)" stroke-linejoin="miter" stroke-linecap="butt" stroke-miterlimit="4" stroke-width="2.6667" d="M16 4c6.627 0 12 5.373 12 12s-5.373 12-12 12c-6.627 0-12-5.373-12-12s5.373-12 12-12z"/><path fill="#fcfcfc" style="fill: var(--color1, #fcfcfc)" d="M16 9.333c3.682 0 6.667 2.985 6.667 6.667s-2.985 6.667-6.667 6.667c-3.682 0-6.667-2.985-6.667-6.667s2.985-6.667 6.667-6.667z"/></symbol><symbol id="icon-d-mpr-toggle-2" viewBox="0 0 32 32"><title>d-mpr-toggle-2</title><path d="M16 22.003l-10-10 1.4-1.4 8.6 8.6 8.6-8.6 1.4 1.4-10 10z"/><path d="M16 22.003l-1.697 1.697 1.697 1.697 1.697-1.697-1.697-1.697zM6 12.003l-1.697-1.697-1.697 1.697 1.697 1.697 1.697-1.697zM7.4 10.603l1.697-1.697-1.697-1.697-1.697 1.697 1.697 1.697zM16 19.203l-1.697 1.697 1.697 1.697 1.697-1.697-1.697-1.697zM24.6 10.603l1.697-1.697-1.697-1.697-1.697 1.697 1.697 1.697zM26 12.003l1.697 1.697 1.697-1.697-1.697-1.697-1.697 1.697zM17.697 20.306l-10-10-3.394 3.394 10 10 3.394-3.394zM7.697 13.7l1.4-1.4-3.394-3.394-1.4 1.4 3.394 3.394zM5.703 12.3l8.6 8.6 3.394-3.394-8.6-8.6-3.394 3.394zM17.697 20.9l8.6-8.6-3.394-3.394-8.6 8.6 3.394 3.394zM22.903 12.3l1.4 1.4 3.394-3.394-1.4-1.4-3.394 3.394zM24.303 10.306l-10 10 3.394 3.394 10-10-3.394-3.394z"/></symbol><symbol id="icon-search" viewBox="0 0 32 32"><title>search</title><path stroke-linejoin="round" stroke-linecap="round" stroke-miterlimit="4" stroke-width="2.4" d="M14.667 25.333c5.891 0 10.667-4.776 10.667-10.667s-4.776-10.667-10.667-10.667c-5.891 0-10.667 4.776-10.667 10.667s4.776 10.667 10.667 10.667z"/><path stroke-linejoin="round" stroke-linecap="round" stroke-miterlimit="4" stroke-width="2.4" d="M28 28l-5.8-5.8"/></symbol><symbol id="icon-Progress-Icon-1" viewBox="0 0 32 32"><title>Progress-Icon-1</title><path fill="#d4f8d3" style="fill: var(--color2, #d4f8d3)" d="M31.976 16c0 8.823-7.152 15.975-15.976 15.975s-15.975-7.152-15.975-15.975c0-8.823 7.152-15.975 15.975-15.975s15.976 7.152 15.976 15.975zM4.817 16c0 6.176 5.007 11.183 11.183 11.183s11.183-5.007 11.183-11.183c0-6.176-5.007-11.183-11.183-11.183s-11.183 5.007-11.183 11.183z"/><path fill="#2bd627" style="fill: var(--color3, #2bd627)" d="M15.975 0.024c8.823-0.013 15.986 7.128 16 15.951s-7.128 15.986-15.951 16c-8.823 0.014-15.986-7.128-16-15.951s7.128-15.986 15.951-16zM16.017 27.183c6.176-0.009 11.175-5.024 11.166-11.2s-5.024-11.175-11.2-11.166c-6.176 0.009-11.175 5.024-11.166 11.2s5.024 11.175 11.2 11.166z"/></symbol><symbol id="icon-Progress-Icon" viewBox="0 0 32 32"><title>Progress-Icon</title><path fill="#d4f8d3" style="fill: var(--color2, #d4f8d3)" d="M31.976 16c0 8.823-7.152 15.975-15.976 15.975s-15.975-7.152-15.975-15.975c0-8.823 7.152-15.975 15.975-15.975s15.976 7.152 15.976 15.975zM4.817 16c0 6.176 5.007 11.183 11.183 11.183s11.183-5.007 11.183-11.183c0-6.176-5.007-11.183-11.183-11.183s-11.183 5.007-11.183 11.183z"/><path fill="#2bd627" style="fill: var(--color3, #2bd627)" d="M15.979 2.421c-0.002-1.323 1.075-2.416 2.384-2.221 3.354 0.502 6.485 2.062 8.916 4.486 3 2.991 4.69 7.052 4.696 11.289s-1.67 8.303-4.662 11.304c-2.424 2.431-5.549 4.001-8.902 4.513-1.308 0.2-2.389-0.89-2.391-2.213s1.081-2.372 2.374-2.656c2.078-0.456 4-1.498 5.525-3.028 2.094-2.1 3.268-4.947 3.263-7.912s-1.187-5.808-3.288-7.902c-1.53-1.525-3.455-2.562-5.534-3.011-1.294-0.279-2.38-1.325-2.382-2.648z"/></symbol><symbol id="icon-gridicons_user" viewBox="0 0 32 32"><title>gridicons_user</title><path fill="#fcfcfc" style="fill: var(--color1, #fcfcfc)" opacity="0.7" d="M16 5.333c1.415 0 2.771 0.562 3.771 1.562s1.562 2.357 1.562 3.771-0.562 2.771-1.562 3.771c-1 1-2.357 1.562-3.771 1.562s-2.771-0.562-3.771-1.562c-1-1-1.562-2.357-1.562-3.771s0.562-2.771 1.562-3.771c1-1 2.357-1.562 3.771-1.562zM16 26.667c0 0 10.667 0 10.667-2.667 0-3.2-5.2-6.667-10.667-6.667s-10.667 3.467-10.667 6.667c0 2.667 10.667 2.667 10.667 2.667z"/></symbol><symbol id="icon-trash-03" viewBox="0 0 32 32"><title>trash-03</title><path fill="none" stroke="#85aa9f" style="stroke: var(--color4, #85aa9f)" stroke-linejoin="round" stroke-linecap="round" stroke-miterlimit="4" stroke-width="2.88" d="M12 4h8M13.333 14v6.667M18.667 14v6.667"/><path fill="none" stroke="#85aa9f" style="stroke: var(--color4, #85aa9f)" stroke-linejoin="round" stroke-linecap="round" stroke-miterlimit="4" stroke-width="2.88" d="M4 8h24M25.333 8l-0.935 14.026c-0.14 2.104-0.21 3.156-0.665 3.954-0.4 0.702-1.004 1.267-1.731 1.62-0.826 0.4-1.881 0.4-3.99 0.4h-4.025c-2.109 0-3.163 0-3.99-0.4-0.727-0.352-1.331-0.917-1.731-1.62-0.455-0.798-0.525-1.85-0.665-3.954l-0.935-14.026"/></symbol><symbol id="icon-edit-01" viewBox="0 0 32 32"><title>edit-01</title><path fill="none" stroke="#85aa9f" style="stroke: var(--color4, #85aa9f)" stroke-linejoin="round" stroke-linecap="round" stroke-miterlimit="4" stroke-width="2.88" d="M3.835 24.154c0.061-0.551 0.092-0.827 0.175-1.085 0.074-0.229 0.179-0.446 0.311-0.647 0.149-0.226 0.345-0.422 0.737-0.814l17.608-17.608c1.473-1.473 3.861-1.473 5.333 0s1.473 3.861 0 5.333l-17.608 17.608c-0.392 0.392-0.588 0.588-0.814 0.737-0.201 0.132-0.418 0.237-0.647 0.311-0.258 0.084-0.533 0.114-1.085 0.175l-4.513 0.501 0.501-4.512z"/></symbol><symbol id="icon-btn-1" viewBox="0 0 32 32"><title>btn-1</title><path stroke-linejoin="miter" stroke-linecap="butt" stroke-miterlimit="4" stroke-width="2.6667" d="M16 4c6.627 0 12 5.373 12 12s-5.373 12-12 12c-6.627 0-12-5.373-12-12s5.373-12 12-12z"/></symbol><symbol id="icon-btn" viewBox="0 0 32 32"><title>btn</title><path fill="none" stroke="#85aa9f" style="stroke: var(--color4, #85aa9f)" stroke-linejoin="miter" stroke-linecap="butt" stroke-miterlimit="4" stroke-width="2.6667" d="M16 4c6.627 0 12 5.373 12 12s-5.373 12-12 12c-6.627 0-12-5.373-12-12s5.373-12 12-12z"/><path fill="#85aa9f" style="fill: var(--color4, #85aa9f)" d="M16 9.333c3.682 0 6.667 2.985 6.667 6.667s-2.985 6.667-6.667 6.667c-3.682 0-6.667-2.985-6.667-6.667s2.985-6.667 6.667-6.667z"/></symbol><symbol id="icon-switch-horizontal-01-1" viewBox="0 0 32 32"><title>switch-horizontal-01-1</title><path fill="none" stroke="#85aa9f" style="stroke: var(--color4, #85aa9f)" stroke-linejoin="round" stroke-linecap="round" stroke-miterlimit="4" stroke-width="2.4" d="M5.333 16h21.333M26.667 16l-5.333-5.333M26.667 16l-5.333 5.333"/></symbol><symbol id="icon-plus" viewBox="0 0 32 32"><title>plus</title><path fill="none" stroke="#85aa9f" style="stroke: var(--color4, #85aa9f)" stroke-linejoin="round" stroke-linecap="round" stroke-miterlimit="4" stroke-width="2.4" d="M16 6.667v18.667"/><path fill="none" stroke="#85aa9f" style="stroke: var(--color4, #85aa9f)" stroke-linejoin="round" stroke-linecap="round" stroke-miterlimit="4" stroke-width="2.4" d="M6.667 16h18.667"/></symbol><symbol id="icon-eye-2" viewBox="0 0 32 32"><title>eye-2</title><path stroke-linejoin="round" stroke-linecap="round" stroke-miterlimit="4" stroke-width="3.2" d="M1.333 16c0 0 5.333-10.667 14.667-10.667s14.667 10.667 14.667 10.667-5.333 10.667-14.667 10.667c-9.333 0-14.667-10.667-14.667-10.667z"/><path stroke-linejoin="round" stroke-linecap="round" stroke-miterlimit="4" stroke-width="3.2" d="M16 20c2.209 0 4-1.791 4-4s-1.791-4-4-4c-2.209 0-4 1.791-4 4s1.791 4 4 4z"/></symbol><symbol id="icon-eye-off-2" viewBox="0 0 32 32"><title>eye-off-2</title><path stroke-linejoin="round" stroke-linecap="round" stroke-miterlimit="4" stroke-width="3.2" d="M23.92 23.92c-2.279 1.737-5.054 2.7-7.92 2.747-9.333 0-14.667-10.667-14.667-10.667 1.659-3.091 3.959-5.791 6.747-7.92M13.2 5.653c0.918-0.215 1.857-0.322 2.8-0.32 9.333 0 14.667 10.667 14.667 10.667-0.809 1.514-1.775 2.94-2.88 4.253M18.827 18.827c-0.366 0.393-0.808 0.708-1.298 0.927s-1.020 0.336-1.557 0.346c-0.537 0.009-1.071-0.089-1.569-0.291s-0.95-0.501-1.33-0.88c-0.38-0.38-0.679-0.832-0.88-1.33s-0.3-1.032-0.29-1.569c0.009-0.537 0.127-1.067 0.346-1.558s0.534-0.932 0.927-1.298"/><path stroke-linejoin="round" stroke-linecap="round" stroke-miterlimit="4" stroke-width="3.2" d="M1.333 1.333l29.333 29.333"/></symbol><symbol id="icon-united-kingdom" viewBox="0 0 32 32"><title>united-kingdom</title><path fill="#f0f0f0" style="fill: var(--color5, #f0f0f0)" d="M16 32c8.837 0 16-7.163 16-16s-7.163-16-16-16c-8.837 0-16 7.163-16 16s7.163 16 16 16z"/><path fill="#0052b4" style="fill: var(--color6, #0052b4)" d="M3.308 6.259c-1.257 1.635-2.204 3.52-2.756 5.567h8.324l-5.567-5.567z"/><path fill="#0052b4" style="fill: var(--color6, #0052b4)" d="M31.449 11.826c-0.552-2.047-1.5-3.932-2.756-5.567l-5.567 5.567h8.323z"/><path fill="#0052b4" style="fill: var(--color6, #0052b4)" d="M0.551 20.174c0.552 2.047 1.5 3.932 2.756 5.567l5.567-5.567h-8.323z"/><path fill="#0052b4" style="fill: var(--color6, #0052b4)" d="M25.741 3.308c-1.635-1.257-3.52-2.204-5.567-2.756v8.324l5.567-5.567z"/><path fill="#0052b4" style="fill: var(--color6, #0052b4)" d="M6.259 28.692c1.635 1.257 3.52 2.204 5.567 2.756v-8.323l-5.567 5.567z"/><path fill="#0052b4" style="fill: var(--color6, #0052b4)" d="M11.826 0.551c-2.047 0.552-3.932 1.5-5.567 2.756l5.567 5.567v-8.323z"/><path fill="#0052b4" style="fill: var(--color6, #0052b4)" d="M20.174 31.449c2.047-0.552 3.932-1.5 5.567-2.756l-5.567-5.567v8.323z"/><path fill="#0052b4" style="fill: var(--color6, #0052b4)" d="M23.125 20.174l5.567 5.567c1.257-1.635 2.204-3.52 2.756-5.567h-8.323z"/><path fill="#d80027" style="fill: var(--color7, #d80027)" d="M31.865 13.913h-13.778v-13.778c-0.683-0.089-1.38-0.135-2.087-0.135s-1.404 0.046-2.087 0.135v13.778h-13.778c-0.089 0.683-0.135 1.38-0.135 2.087s0.046 1.404 0.135 2.087h13.778v13.778c0.683 0.089 1.38 0.135 2.087 0.135s1.404-0.046 2.087-0.135v-13.778h13.778c0.089-0.683 0.135-1.38 0.135-2.087s-0.047-1.404-0.135-2.087z"/><path fill="#d80027" style="fill: var(--color7, #d80027)" d="M20.174 20.174l7.14 7.14c0.328-0.328 0.642-0.672 0.941-1.027l-6.113-6.113h-1.968z"/><path fill="#d80027" style="fill: var(--color7, #d80027)" d="M11.826 20.174h-0l-7.14 7.14c0.328 0.328 0.671 0.642 1.027 0.941l6.113-6.113v-1.967z"/><path fill="#d80027" style="fill: var(--color7, #d80027)" d="M11.826 11.826v-0l-7.14-7.14c-0.328 0.328-0.642 0.671-0.941 1.027l6.113 6.113h1.968z"/><path fill="#d80027" style="fill: var(--color7, #d80027)" d="M20.174 11.826l7.14-7.14c-0.328-0.328-0.671-0.642-1.027-0.94l-6.113 6.113v1.968z"/></symbol><symbol id="icon-ukraine" viewBox="0 0 32 32"><title>ukraine</title><path fill="#ffda44" style="fill: var(--color8, #ffda44)" d="M16 32c8.837 0 16-7.163 16-16s-7.163-16-16-16c-8.837 0-16 7.163-16 16s7.163 16 16 16z"/><path fill="#338af3" style="fill: var(--color9, #338af3)" d="M0 16c0-8.836 7.163-16 16-16s16 7.163 16 16z"/></symbol><symbol id="icon-switch-horizontal-01" viewBox="0 0 32 32"><title>switch-horizontal-01</title><path fill="none" stroke="#85aa9f" style="stroke: var(--color4, #85aa9f)" stroke-linejoin="round" stroke-linecap="round" stroke-miterlimit="4" stroke-width="2" d="M26.667 22.667h-21.333M5.333 22.667l5.333-5.333M5.333 22.667l5.333 5.333"/><path fill="none" stroke="#85aa9f" style="stroke: var(--color4, #85aa9f)" stroke-linejoin="round" stroke-linecap="round" stroke-miterlimit="4" stroke-width="2" d="M5.333 9.333h21.333M26.667 9.333l-5.333-5.333M26.667 9.333l-5.333 5.333"/></symbol></svg>